<svg id="whiteback-solidcolor" xmlns="http://www.w3.org/2000/svg" viewBox="0 0 358 334"><defs><style>.cls-1{fill:#f57;}.cls-2{fill:#cccccf;}</style></defs><title>アートボード 6</title><path class="cls-1" d="M272.5,74.75c-29.66-23.85-73.17-18.66-97.12,10.91l-32.45,40.07a16.39,16.39,0,0,0,12.74,26.71h94.94a27.87,27.87,0,0,1,27.26,22.08l.57,2.69,4.42-5.46A68.85,68.85,0,0,0,272.5,74.75Z"/><path class="cls-2" d="M85.43,259.64c29.66,23.85,73.17,18.66,97.12-10.91L215,208.66a16.39,16.39,0,0,0-12.74-26.71H107.32a27.87,27.87,0,0,1-27.26-22.08l-.57-2.69-4.42,5.46A68.85,68.85,0,0,0,85.43,259.64Z"/></svg>